<svg id="SvgjsSvg1051" xmlns="http://www.w3.org/2000/svg" version="1.1" xmlns:xlink="http://www.w3.org/1999/xlink" xmlns:svgjs="http://svgjs.com/svgjs" width="23" height="23" viewBox="0 0 23 23"><title>Shape 18</title><desc>Created with Avocode.</desc><defs id="SvgjsDefs1052"></defs><path id="SvgjsPath1053" d="M1505 1682.45H1498.96V1679.56H1498.45C1498.48 1679.56 1498.5 1679.55 1498.5 1679.55C1498.5 1679.55 1499.28 1676.1699999999998 1495.48 1676.47C1495.15 1679.69 1497.43 1679.69 1498.23 1679.6000000000001V1682.45H1492.27V1686.1200000000001H1493.7L1494.29 1692.0000000000002H1503.06L1503.55 1686.1200000000001H1505ZM1502.39 1691.26H1494.96L1494.44 1686.12H1502.8200000000002ZM1504.26 1685.39H1493.01V1683.19H1504.26ZM1494.54 1679.6L1492.82 1677.8799999999999L1494.25 1676.4099999999999L1494.05 1676.2099999999998C1494.36 1676.2199999999998 1494.6699999999998 1676.1 1494.8999999999999 1675.86L1498.7099999999998 1671.9299999999998C1499.1499999999999 1671.4699999999998 1499.1399999999999 1670.7399999999998 1498.6799999999998 1670.2999999999997C1498.2299999999998 1669.8599999999997 1497.4999999999998 1669.8699999999997 1497.0499999999997 1670.3299999999997L1493.2399999999998 1674.2599999999998C1493.0199999999998 1674.4899999999998 1492.9099999999999 1674.7799999999997 1492.9199999999998 1675.0799999999997L1492.7799999999997 1674.9399999999996L1491.4299999999998 1676.2499999999995L1489.5499999999997 1674.3699999999994L1489.2899999999997 1674.6899999999994C1489.2699999999998 1674.7199999999993 1487.4199999999998 1677.0499999999993 1485.7499999999998 1679.5299999999993C1482.6299999999999 1684.1699999999994 1482.7799999999997 1685.3299999999992 1483.2699999999998 1685.8199999999993C1483.4299999999998 1685.9799999999993 1483.6499999999999 1686.0999999999992 1484.0099999999998 1686.0999999999992C1485.1699999999998 1686.0999999999992 1487.7599999999998 1684.8399999999992 1494.2099999999998 1679.8599999999992ZM1493.09 1675.66C1493.1399999999999 1675.74 1493.1999999999998 1675.8200000000002 1493.27 1675.89C1493.35 1675.97 1493.44 1676.0300000000002 1493.54 1676.0800000000002L1490.73 1678.9600000000003L1490.22 1678.4600000000003ZM1486.22 1684.51C1484.16 1685.64 1483.81 1685.32 1483.79 1685.31C1483.77 1685.28 1483.21 1684.62 1486.36 1679.94C1487.6499999999999 1678.03 1489.05 1676.2 1489.61 1675.47L1490.9099999999999 1676.76L1489.1799999999998 1678.45L1490.7399999999998 1680.01L1492.3099999999997 1678.4L1493.4299999999996 1679.5300000000002C1490.3299999999997 1681.9100000000003 1487.9099999999996 1683.5900000000001 1486.2199999999996 1684.5100000000002ZM1498.86 1679.53C1498.86 1679.53 1502.28 1680.34 1501.8799999999999 1676.44C1498.08 1676.14 1498.86 1679.53 1498.86 1679.53Z " fill="#46acb1" fill-opacity="1" transform="matrix(1,0,0,1,-1482,-1669)"></path></svg>