<svg id="SvgjsSvg1017" xmlns="http://www.w3.org/2000/svg" version="1.1" xmlns:xlink="http://www.w3.org/1999/xlink" xmlns:svgjs="http://svgjs.com/svgjs" width="55" height="55" viewBox="0 0 55 55"><title>+</title><desc>Created with Avocode.</desc><defs id="SvgjsDefs1018"><filter id="SvgjsFilter1020" width="200%" height="200%" x="-50%" y="-50%"><feMorphology id="SvgjsFeMorphology1021" operator="dilate" radius="0" result="SvgjsFeMorphology1021Out" in="SourceGraphic"></feMorphology><feOffset id="SvgjsFeOffset1022" dx="0" dy="6" result="SvgjsFeOffset1022Out" in="SvgjsFeMorphology1021Out"></feOffset><feGaussianBlur id="SvgjsFeGaussianBlur1023" stdDeviation="7 " result="SvgjsFeGaussianBlur1023Out" in="SvgjsFeOffset1022Out"></feGaussianBlur><feComposite id="SvgjsFeComposite1024" in="SvgjsFeGaussianBlur1023Out" in2="SourceAlpha" operator="out" result="SvgjsFeComposite1024Out"></feComposite></filter><clipPath id="SvgjsClipPath1029"><path id="SvgjsPath1028" d="M936 779V744H971V779ZM966.727 752.451L962.874 748.5980000000001L954.07 757.402L945.6590000000001 748.9920000000001L942.0340000000001 752.6170000000001L950.4440000000001 761.028L940.9150000000001 770.557L944.768 774.41L954.298 764.881L962.708 773.2919999999999L966.334 769.6659999999999L957.923 761.256Z " fill="#ffffff"></path></clipPath></defs><path id="SvgjsPath1019" d="M966.727 752.451L962.874 748.5980000000001L954.07 757.402L945.6590000000001 748.9920000000001L942.0340000000001 752.6170000000001L950.4440000000001 761.028L940.9150000000001 770.557L944.768 774.41L954.298 764.881L962.708 773.2919999999999L966.334 769.6659999999999L957.923 761.256Z " fill="#000000" fill-opacity="0.35" filter="url(#SvgjsFilter1020)" transform="matrix(1,0,0,1,-926,-740)"></path><path id="SvgjsPath1025" d="M966.727 752.451L962.874 748.5980000000001L954.07 757.402L945.6590000000001 748.9920000000001L942.0340000000001 752.6170000000001L950.4440000000001 761.028L940.9150000000001 770.557L944.768 774.41L954.298 764.881L962.708 773.2919999999999L966.334 769.6659999999999L957.923 761.256Z " fill="#ff5d00" fill-opacity="1" transform="matrix(1,0,0,1,-926,-740)"></path><path id="SvgjsPath1026" d="M966.727 752.451L962.874 748.5980000000001L954.07 757.402L945.6590000000001 748.9920000000001L942.0340000000001 752.6170000000001L950.4440000000001 761.028L940.9150000000001 770.557L944.768 774.41L954.298 764.881L962.708 773.2919999999999L966.334 769.6659999999999L957.923 761.256Z " fill="#ff5d00" fill-opacity="1" transform="matrix(1,0,0,1,-926,-740)"></path><path id="SvgjsPath1027" d="M966.727 752.451L962.874 748.5980000000001L954.07 757.402L945.6590000000001 748.9920000000001L942.0340000000001 752.6170000000001L950.4440000000001 761.028L940.9150000000001 770.557L944.768 774.41L954.298 764.881L962.708 773.2919999999999L966.334 769.6659999999999L957.923 761.256Z " fill-opacity="0" fill="#ffffff" stroke-dasharray="0" stroke-linejoin="round" stroke-linecap="round" stroke-opacity="1" stroke="#ffffff" stroke-miterlimit="50" stroke-width="8" clip-path="url(&quot;#SvgjsClipPath1029&quot;)" transform="matrix(1,0,0,1,-926,-740)"></path></svg>