<svg id="SvgjsSvg1008" xmlns="http://www.w3.org/2000/svg" version="1.1" xmlns:xlink="http://www.w3.org/1999/xlink" xmlns:svgjs="http://svgjs.com/svgjs" width="13" height="14" viewBox="0 0 13 14"><title>close</title><desc>Created with Avocode.</desc><defs id="SvgjsDefs1009"></defs><path id="SvgjsPath1010" d="M1235.55 178.435L1232.03 174.496L1235.55 170.55700000000002C1236.1399999999999 169.971 1236.1399999999999 169.02100000000002 1235.55 168.436C1234.95 167.85 1233.98 167.85 1233.3799999999999 168.436L1229.9999999999998 172.223L1226.6099999999997 168.436C1226.0099999999998 167.85 1225.0399999999997 167.85 1224.4399999999996 168.436C1223.8499999999997 169.02100000000002 1223.8499999999997 169.971 1224.4399999999996 170.55700000000002L1227.9599999999996 174.496L1224.4399999999996 178.435C1223.8499999999997 179.02 1223.8499999999997 179.97 1224.4399999999996 180.556C1225.0399999999995 181.14100000000002 1226.0099999999995 181.14100000000002 1226.6099999999997 180.556L1229.9999999999998 176.768L1233.3799999999999 180.556C1233.9799999999998 181.14100000000002 1234.9499999999998 181.14100000000002 1235.55 180.556C1236.1399999999999 179.97 1236.1399999999999 179.02 1235.55 178.435Z " fill="#359fce" fill-opacity="1" transform="matrix(1,0,0,1,-1223,-167)"></path></svg>