<?xml version="1.0" encoding="utf-8"?>
<!-- Generator: Adobe Illustrator 18.1.1, SVG Export Plug-In . SVG Version: 6.00 Build 0)  -->
<svg version="1.1" id="SvgjsSvg1014" xmlns:svgjs="http://svgjs.com/svgjs"
	 xmlns="http://www.w3.org/2000/svg" xmlns:xlink="http://www.w3.org/1999/xlink" x="0px" y="0px" viewBox="0 0 16 16"
	 enable-background="new 0 0 16 16" xml:space="preserve">
<title>Shape 21</title>
<path fill="#359FCE" d="M14.7,1.2C13.2-0.3,12.1,0,12.1,0L6.9,5.2L1,11.1L0,16l4.9-1L10.8,9l5.2-5.2C15.9,3.8,16.1,2.7,14.7,1.2z
	 M4.6,14.4l-1.7,0.3c-0.2-0.3-0.3-0.6-0.7-1c-0.3-0.3-0.7-0.6-1-0.7l0.4-1.7l0.5-0.5c0,0,0.9,0,1.9,1s1,1.9,1,1.9L4.6,14.4z"/>
<ellipse fill="#FFFFFF" cx="10.4" cy="10.5" rx="5.6" ry="5.5"/>
<desc>Created with Avocode.</desc>
<path id="SvgjsPath1010" fill="#C87888" d="M13.5,12.6l-2-2.1l2-2.1c0.3-0.3,0.3-0.8,0-1.1c-0.3-0.3-0.9-0.3-1.2,0l-1.9,2l-1.9-2
	c-0.3-0.3-0.9-0.3-1.2,0C7,7.5,7,8,7.3,8.3l2,2.1l-2,2.1c-0.3,0.3-0.3,0.8,0,1.1c0.3,0.3,0.9,0.3,1.2,0l1.9-2l1.9,2
	c0.3,0.3,0.9,0.3,1.2,0C13.9,13.4,13.9,12.9,13.5,12.6z"/>
<g id="Layer_2">
</g>
</svg>
