<svg id="SvgjsSvg1014" xmlns="http://www.w3.org/2000/svg" version="1.1" xmlns:xlink="http://www.w3.org/1999/xlink" xmlns:svgjs="http://svgjs.com/svgjs" width="15" height="23" viewBox="0 0 15 23"><title>Shape 21</title><desc>Created with Avocode.</desc><defs id="SvgjsDefs1015"></defs><path id="SvgjsPath1016" d="M1131.9 671.937C1131.9 673.291 1130.8200000000002 674.393 1129.5 674.393C1128.18 674.393 1127.1 673.291 1127.1 671.937C1127.1 670.581 1128.1799999999998 669.479 1129.5 669.479C1130.82 669.479 1131.9 670.581 1131.9 671.937ZM1129.5 677.87C1132.69 677.87 1135.29 675.2090000000001 1135.29 671.937C1135.29 668.662 1132.69 666 1129.5 666C1126.31 666 1123.71 668.663 1123.71 671.937C1123.71 675.2090000000001 1126.31 677.87 1129.5 677.87C1132.69 677.87 1129.5 677.87 1129.5 677.87ZM1131.84 682.712L1135.08 686.031C1135.08 686.0329999999999 1135.08 686.034 1135.08 686.035C1135.74 686.7139999999999 1135.74 687.813 1135.08 688.49C1135.08 688.491 1135.08 688.491 1135.08 688.492C1134.4199999999998 689.17 1133.34 689.169 1132.6799999999998 688.49L1129.4999999999998 685.229L1126.3199999999997 688.49C1125.6599999999996 689.169 1124.5799999999997 689.169 1123.9199999999996 688.49C1123.2599999999995 687.811 1123.2599999999995 686.71 1123.9199999999996 686.0310000000001L1127.1599999999996 682.7120000000001C1125.9599999999996 682.4340000000001 1124.8299999999997 681.9510000000001 1123.7899999999997 681.2850000000001C1122.9999999999998 680.7730000000001 1122.7599999999998 679.7 1123.2599999999998 678.8870000000001C1123.2599999999998 678.8860000000001 1123.2599999999998 678.8850000000001 1123.2599999999998 678.884C1123.7599999999998 678.073 1124.8099999999997 677.8290000000001 1125.5999999999997 678.34C1127.9699999999996 679.868 1131.0299999999997 679.869 1133.3999999999996 678.34C1133.3999999999996 678.34 1133.3999999999996 678.34 1133.3999999999996 678.339C1134.1899999999996 677.8290000000001 1135.2399999999996 678.0740000000001 1135.7399999999996 678.8870000000001C1136.2399999999996 679.7 1135.9999999999995 680.773 1135.2099999999996 681.2850000000001C1134.1699999999996 681.9510000000001 1133.0299999999995 682.4340000000001 1131.8399999999997 682.7120000000001Z " fill="#ffffff" fill-opacity="1" transform="matrix(1,0,0,1,-1122,-666)"></path></svg>