<svg id="SvgjsSvg1013" xmlns="http://www.w3.org/2000/svg" version="1.1" xmlns:xlink="http://www.w3.org/1999/xlink" xmlns:svgjs="http://svgjs.com/svgjs" width="10" height="10" viewBox="0 0 10 10"><title>Ellipse 3</title><desc>Created with Avocode.</desc><defs id="SvgjsDefs1014"><linearGradient id="SvgjsLinearGradient1017" gradientUnits="userSpaceOnUse" x1="1821" y1="692" x2="1821" y2="682"><stop id="SvgjsStop1018" stop-opacity="1" stop-color="#41afb7" offset="0"></stop><stop id="SvgjsStop1019" stop-opacity="1" stop-color="#41afb7" offset="0.02"></stop><stop id="SvgjsStop1020" stop-opacity="1" stop-color="#57ca8d" offset="1"></stop></linearGradient></defs><path id="SvgjsPath1015" d="M1821 682C1823.76 682 1826 684.239 1826 687C1826 689.761 1823.76 692 1821 692C1818.24 692 1816 689.761 1816 687C1816 684.239 1818.24 682 1821 682Z " fill="#4bb8ae" fill-opacity="1" transform="matrix(1,0,0,1,-1816,-682)"></path><path id="SvgjsPath1016" d="M1821 682C1823.76 682 1826 684.239 1826 687C1826 689.761 1823.76 692 1821 692C1818.24 692 1816 689.761 1816 687C1816 684.239 1818.24 682 1821 682Z " fill="url(#SvgjsLinearGradient1017)" transform="matrix(1,0,0,1,-1816,-682)"></path></svg>