<svg id="SvgjsSvg1023" xmlns="http://www.w3.org/2000/svg" version="1.1" xmlns:xlink="http://www.w3.org/1999/xlink" xmlns:svgjs="http://svgjs.com/svgjs" width="24" height="16" viewBox="0 0 24 16"><title>rub</title><desc>Created with Avocode.</desc><defs id="SvgjsDefs1024"></defs><path id="SvgjsPath1025" d="M1751.64 461.867L1752.3000000000002 461.867L1752.3000000000002 462.409L1751.64 462.409L1751.64 463.117L1752.3000000000002 463.117L1752.3000000000002 464.35900000000004L1753.1200000000001 464.35900000000004L1753.1200000000001 463.117L1756.7 463.117L1756.7 462.409L1753.1200000000001 462.409L1753.1200000000001 461.867L1754.7 461.867C1755.5800000000002 461.867 1756.19 461.692 1756.53 461.333C1756.86 460.975 1757.03 460.52900000000005 1757.03 460.00500000000005C1757.03 459.13000000000005 1756.47 458.422 1755.57 458.29100000000005C1755.36 458.25600000000003 1755.05 458.23800000000006 1754.6299999999999 458.23800000000006L1752.3 458.23800000000006L1752.3 461.16700000000003L1751.6399999999999 461.16700000000003ZM1753.12 458.964L1754.6999999999998 458.964C1755.08 458.964 1755.33 458.98199999999997 1755.4699999999998 459.017C1755.8999999999999 459.13 1756.1699999999998 459.515 1756.1699999999998 460.031C1756.1699999999998 460.73900000000003 1755.7799999999997 461.15000000000003 1754.7099999999998 461.15000000000003L1753.12 461.15000000000003ZM1766.1 453.875L1745.26 453.875L1745.27 455.099L1764.8799999999999 455.087L1764.84 465.753L1766.1 465.755ZM1768 463.879L1768 452L1747.16 452L1747.16 453.223L1766.77 453.211L1766.74 463.878ZM1764.24 455.751L1744 455.751L1744 467.005L1764.24 467.005ZM1762.98 465.755L1745.26 465.755L1745.26 456.962L1762.98 456.962Z " fill="#449fec" fill-opacity="1" transform="matrix(1,0,0,1,-1744,-452)"></path><path id="SvgjsPath1026" d="M1751.64 461.867L1752.3000000000002 461.867L1752.3000000000002 462.409L1751.64 462.409L1751.64 463.117L1752.3000000000002 463.117L1752.3000000000002 464.35900000000004L1753.1200000000001 464.35900000000004L1753.1200000000001 463.117L1756.7 463.117L1756.7 462.409L1753.1200000000001 462.409L1753.1200000000001 461.867L1754.7 461.867C1755.5800000000002 461.867 1756.19 461.692 1756.53 461.333C1756.86 460.975 1757.03 460.52900000000005 1757.03 460.00500000000005C1757.03 459.13000000000005 1756.47 458.422 1755.57 458.29100000000005C1755.36 458.25600000000003 1755.05 458.23800000000006 1754.6299999999999 458.23800000000006L1752.3 458.23800000000006L1752.3 461.16700000000003L1751.6399999999999 461.16700000000003ZM1753.12 458.964L1754.6999999999998 458.964C1755.08 458.964 1755.33 458.98199999999997 1755.4699999999998 459.017C1755.8999999999999 459.13 1756.1699999999998 459.515 1756.1699999999998 460.031C1756.1699999999998 460.73900000000003 1755.7799999999997 461.15000000000003 1754.7099999999998 461.15000000000003L1753.12 461.15000000000003ZM1766.1 453.875L1745.26 453.875L1745.27 455.099L1764.8799999999999 455.087L1764.84 465.753L1766.1 465.755ZM1768 463.879L1768 452L1747.16 452L1747.16 453.223L1766.77 453.211L1766.74 463.878ZM1764.24 455.751L1744 455.751L1744 467.005L1764.24 467.005ZM1762.98 465.755L1745.26 465.755L1745.26 456.962L1762.98 456.962Z " fill="#47b6ac" fill-opacity="1" transform="matrix(1,0,0,1,-1744,-452)"></path></svg>