<svg id="SvgjsSvg1000" xmlns="http://www.w3.org/2000/svg" version="1.1" xmlns:xlink="http://www.w3.org/1999/xlink" xmlns:svgjs="http://svgjs.com/svgjs" width="14" height="13" viewBox="0 0 14 13"><title>Rounded Rectangle 21 copy</title><desc>Created with Avocode.</desc><defs id="SvgjsDefs1001"><linearGradient id="SvgjsLinearGradient1009" gradientUnits="userSpaceOnUse" x1="1821.1207930352766" y1="771.015677662917" x2="1821.1207930352766" y2="759.3170931822651"><stop id="SvgjsStop1010" stop-opacity="1" stop-color="#41afb7" offset="0"></stop><stop id="SvgjsStop1011" stop-opacity="1" stop-color="#41afb7" offset="0.02"></stop><stop id="SvgjsStop1012" stop-opacity="1" stop-color="#57ca8d" offset="1"></stop></linearGradient></defs><path id="SvgjsPath1007" d="M1817.11 763.377L1820.0588799999998 766.8911999999999L1824.5599999999997 760.0619999999999C1824.9099999999996 759.3169999999999 1825.9199999999996 759.0929999999998 1826.8299999999997 759.5629999999999C1827.7299999999998 760.0319999999999 1828.1799999999996 761.0169999999998 1827.8299999999997 761.7619999999998L1822.4399999999996 769.9549999999998C1822.2006199999996 770.4645299999999 1821.6478399999996 770.7298899999998 1821.0343999999996 770.6966799999998C1820.3353799999995 771.1574899999998 1819.4417499999995 771.1171299999997 1818.9999999999995 770.5879999999997L1814.5399999999995 765.2739999999998C1814.0799999999995 764.7239999999998 1814.2799999999995 763.8529999999997 1814.9899999999996 763.3289999999997C1815.6999999999996 762.8059999999997 1816.6499999999996 762.8269999999998 1817.1099999999994 763.3769999999997Z " fill="#4cbca2" fill-opacity="1" transform="matrix(1,0,0,1,-1814,-759)"></path><path id="SvgjsPath1008" d="M1817.11 763.377L1820.0588799999998 766.8911999999999L1824.5599999999997 760.0619999999999C1824.9099999999996 759.3169999999999 1825.9199999999996 759.0929999999998 1826.8299999999997 759.5629999999999C1827.7299999999998 760.0319999999999 1828.1799999999996 761.0169999999998 1827.8299999999997 761.7619999999998L1822.4399999999996 769.9549999999998C1822.2006199999996 770.4645299999999 1821.6478399999996 770.7298899999998 1821.0343999999996 770.6966799999998C1820.3353799999995 771.1574899999998 1819.4417499999995 771.1171299999997 1818.9999999999995 770.5879999999997L1814.5399999999995 765.2739999999998C1814.0799999999995 764.7239999999998 1814.2799999999995 763.8529999999997 1814.9899999999996 763.3289999999997C1815.6999999999996 762.8059999999997 1816.6499999999996 762.8269999999998 1817.1099999999994 763.3769999999997Z " fill="url(#SvgjsLinearGradient1009)" transform="matrix(1,0,0,1,-1814,-759)"></path></svg>