<svg 
 xmlns="http://www.w3.org/2000/svg"
 xmlns:xlink="http://www.w3.org/1999/xlink"
 width="55px" height="52px">
<path fill-rule="evenodd"  fill="rgb(75, 188, 163)"
 d="M54.981,40.867 C54.956,41.142 54.862,41.393 54.724,41.579 C54.591,41.767 54.385,41.885 54.185,41.916 C54.185,41.916 53.247,42.061 52.326,42.106 C51.866,42.132 51.411,42.138 51.058,42.130 C50.710,42.124 50.480,42.112 50.480,42.112 C50.272,42.103 50.091,42.213 50.040,42.384 C50.040,42.384 50.033,42.410 50.022,42.448 C50.010,42.487 49.997,42.539 49.974,42.587 C49.933,42.686 49.892,42.784 49.892,42.784 C49.892,42.784 49.723,43.201 49.723,43.201 C49.654,43.342 49.693,43.517 49.827,43.641 C49.827,43.641 50.005,43.801 50.264,44.056 C50.521,44.309 50.867,44.665 51.183,45.034 C51.815,45.763 52.376,46.597 52.376,46.597 C52.480,46.749 52.526,46.951 52.499,47.160 C52.467,47.366 52.370,47.583 52.216,47.774 C52.216,47.774 52.077,47.947 52.077,47.947 C51.910,48.166 51.670,48.299 51.447,48.366 C51.221,48.431 51.000,48.420 50.818,48.326 C50.818,48.326 50.609,48.220 50.304,48.052 C50.001,47.886 49.589,47.639 49.200,47.386 C48.413,46.880 47.704,46.309 47.704,46.309 C47.623,46.245 47.531,46.212 47.443,46.208 C47.350,46.198 47.260,46.217 47.186,46.267 C47.186,46.267 46.836,46.510 46.836,46.510 C46.844,46.523 46.449,46.734 46.449,46.734 C46.311,46.810 46.246,46.985 46.282,47.166 C46.282,47.166 46.336,47.408 46.392,47.758 C46.450,48.111 46.513,48.589 46.553,49.076 C46.594,49.564 46.612,50.060 46.614,50.437 C46.616,50.627 46.612,50.778 46.609,50.886 C46.606,50.993 46.604,51.055 46.604,51.055 C46.594,51.419 46.256,51.776 45.785,51.917 C45.786,51.922 45.569,51.967 45.569,51.967 C45.029,52.081 44.513,51.911 44.332,51.536 C44.332,51.536 43.902,50.683 43.573,49.816 C43.405,49.383 43.257,48.948 43.155,48.622 C43.054,48.298 42.994,48.070 42.994,48.070 C42.937,47.868 42.777,47.726 42.599,47.726 C42.599,47.726 42.173,47.733 42.174,47.719 C42.174,47.719 41.728,47.674 41.728,47.674 C41.650,47.667 41.572,47.690 41.504,47.736 C41.437,47.776 41.379,47.839 41.342,47.921 C41.342,47.921 40.953,48.790 40.438,49.634 C40.183,50.061 39.909,50.464 39.692,50.760 C39.476,51.059 39.321,51.255 39.321,51.255 C39.208,51.400 39.032,51.499 38.823,51.541 C38.720,51.561 38.606,51.572 38.493,51.558 C38.380,51.543 38.265,51.513 38.151,51.467 C38.151,51.467 37.946,51.383 37.946,51.383 C37.427,51.186 37.129,50.704 37.200,50.301 C37.200,50.301 37.348,49.370 37.589,48.479 C37.830,47.569 38.156,46.712 38.156,46.712 C38.229,46.515 38.173,46.319 38.029,46.214 C38.029,46.214 37.697,45.946 37.697,45.946 C37.697,45.946 37.609,45.876 37.521,45.806 C37.475,45.773 37.438,45.730 37.407,45.702 C37.378,45.672 37.358,45.652 37.358,45.652 C37.246,45.542 37.062,45.531 36.902,45.621 C36.902,45.621 36.060,46.113 35.168,46.478 C34.275,46.860 33.303,47.142 33.303,47.142 C32.951,47.248 32.514,47.029 32.236,46.620 C32.236,46.620 32.109,46.437 32.113,46.434 C31.839,45.951 31.852,45.399 32.142,45.116 C32.142,45.116 32.310,44.949 32.571,44.708 C32.832,44.467 33.185,44.156 33.546,43.864 C34.266,43.274 35.024,42.777 35.024,42.777 C35.197,42.662 35.286,42.464 35.233,42.293 C35.233,42.293 35.103,41.885 35.103,41.885 C35.103,41.885 35.014,41.444 35.014,41.444 C34.982,41.290 34.835,41.173 34.651,41.153 C34.651,41.153 33.711,41.051 32.755,40.824 C32.279,40.713 31.797,40.578 31.443,40.464 C31.095,40.351 30.862,40.264 30.862,40.264 C30.522,40.142 30.272,39.707 30.295,39.214 C30.295,39.214 30.315,38.992 30.315,38.992 C30.341,38.717 30.435,38.466 30.572,38.280 C30.705,38.092 30.911,37.974 31.111,37.943 C31.111,37.943 32.050,37.799 32.971,37.753 C33.431,37.727 33.886,37.721 34.238,37.729 C34.587,37.735 34.816,37.747 34.816,37.747 C35.025,37.756 35.206,37.646 35.256,37.475 C35.256,37.475 35.264,37.449 35.275,37.411 C35.286,37.372 35.299,37.321 35.322,37.272 C35.363,37.173 35.404,37.075 35.404,37.075 C35.404,37.075 35.573,36.658 35.573,36.658 C35.642,36.517 35.604,36.342 35.469,36.218 C35.469,36.218 35.291,36.058 35.032,35.803 C34.775,35.550 34.430,35.194 34.114,34.825 C33.482,34.096 32.920,33.262 32.920,33.262 C32.817,33.110 32.770,32.908 32.798,32.699 C32.829,32.494 32.927,32.276 33.080,32.085 C33.080,32.085 33.220,31.912 33.220,31.912 C33.386,31.693 33.627,31.561 33.850,31.493 C34.076,31.428 34.297,31.439 34.478,31.533 C34.478,31.533 34.687,31.639 34.992,31.807 C35.295,31.973 35.707,32.220 36.096,32.473 C36.883,32.979 37.593,33.550 37.593,33.550 C37.673,33.614 37.765,33.648 37.854,33.651 C37.947,33.661 38.037,33.643 38.111,33.592 C38.111,33.592 38.460,33.349 38.460,33.349 C38.452,33.336 38.848,33.125 38.848,33.125 C38.985,33.049 39.051,32.874 39.014,32.694 C39.014,32.694 38.960,32.452 38.904,32.101 C38.847,31.748 38.783,31.271 38.743,30.783 C38.702,30.296 38.685,29.799 38.682,29.422 C38.680,29.233 38.684,29.081 38.687,28.973 C38.690,28.866 38.692,28.804 38.692,28.804 C38.702,28.440 39.041,28.083 39.512,27.942 C39.510,27.937 39.727,27.892 39.727,27.892 C40.268,27.779 40.784,27.948 40.965,28.323 C40.965,28.323 41.394,29.176 41.724,30.043 C41.892,30.476 42.039,30.911 42.141,31.237 C42.243,31.561 42.303,31.789 42.303,31.789 C42.359,31.991 42.520,32.133 42.697,32.133 C42.697,32.133 43.123,32.126 43.123,32.141 C43.123,32.141 43.568,32.185 43.568,32.185 C43.647,32.192 43.724,32.169 43.792,32.123 C43.860,32.083 43.917,32.020 43.955,31.938 C43.955,31.938 44.344,31.069 44.858,30.226 C45.113,29.798 45.388,29.396 45.604,29.099 C45.821,28.800 45.976,28.604 45.976,28.604 C46.089,28.459 46.264,28.360 46.473,28.318 C46.577,28.298 46.690,28.287 46.803,28.301 C46.916,28.316 47.032,28.346 47.145,28.392 C47.145,28.392 47.350,28.476 47.350,28.476 C47.869,28.674 48.167,29.155 48.097,29.558 C48.097,29.558 47.948,30.489 47.707,31.380 C47.466,32.290 47.140,33.147 47.140,33.147 C47.067,33.344 47.124,33.540 47.268,33.645 C47.268,33.645 47.600,33.914 47.600,33.914 C47.600,33.914 47.688,33.983 47.776,34.053 C47.822,34.086 47.858,34.129 47.889,34.158 C47.919,34.187 47.939,34.207 47.939,34.207 C48.051,34.317 48.235,34.328 48.394,34.238 C48.394,34.238 49.236,33.746 50.129,33.381 C51.021,32.999 51.993,32.717 51.993,32.717 C52.346,32.611 52.783,32.830 53.061,33.239 C53.061,33.239 53.187,33.422 53.183,33.425 C53.458,33.908 53.445,34.460 53.154,34.743 C53.154,34.743 52.986,34.910 52.725,35.151 C52.465,35.392 52.112,35.703 51.751,35.995 C51.030,36.585 50.272,37.082 50.272,37.082 C50.099,37.197 50.010,37.395 50.064,37.566 C50.064,37.566 50.193,37.974 50.193,37.974 C50.193,37.974 50.282,38.415 50.282,38.415 C50.314,38.569 50.462,38.686 50.645,38.706 C50.645,38.706 51.586,38.808 52.541,39.036 C53.017,39.146 53.500,39.281 53.853,39.395 C54.202,39.508 54.434,39.595 54.434,39.595 C54.774,39.717 55.025,40.152 55.001,40.645 C55.001,40.645 54.981,40.867 54.981,40.867 ZM48.883,38.957 C48.800,38.592 48.758,38.346 48.758,38.346 C48.758,38.346 48.676,38.110 48.571,37.751 C48.501,37.578 48.409,37.382 48.324,37.165 C48.272,37.062 48.208,36.960 48.151,36.853 C48.088,36.749 48.044,36.631 47.968,36.533 C47.694,36.123 47.387,35.731 47.116,35.477 C46.980,35.350 46.878,35.233 46.792,35.165 C46.707,35.098 46.658,35.060 46.658,35.060 C46.658,35.060 46.609,35.021 46.525,34.953 C46.483,34.919 46.432,34.877 46.374,34.828 C46.312,34.784 46.238,34.742 46.160,34.690 C46.083,34.638 45.999,34.582 45.910,34.523 C45.824,34.459 45.716,34.420 45.615,34.362 C45.512,34.308 45.406,34.251 45.298,34.194 C45.185,34.148 45.070,34.102 44.954,34.056 C44.731,33.945 44.484,33.902 44.265,33.824 C44.156,33.781 44.043,33.774 43.939,33.751 C43.835,33.729 43.737,33.709 43.646,33.691 C43.464,33.655 43.308,33.657 43.201,33.641 C43.094,33.629 43.033,33.623 43.033,33.623 C43.033,33.610 42.786,33.620 42.416,33.616 C42.231,33.616 42.016,33.659 41.785,33.672 C41.554,33.702 41.313,33.771 41.067,33.810 C40.833,33.896 40.588,33.953 40.372,34.039 C40.163,34.139 39.955,34.206 39.793,34.296 C39.471,34.480 39.250,34.591 39.257,34.602 C39.257,34.602 39.207,34.637 39.118,34.700 C39.033,34.766 38.896,34.839 38.754,34.959 C38.683,35.019 38.607,35.085 38.526,35.154 C38.447,35.225 38.352,35.286 38.277,35.376 C38.123,35.550 37.928,35.708 37.786,35.914 C37.708,36.010 37.630,36.107 37.553,36.201 C37.486,36.304 37.420,36.405 37.357,36.503 C37.297,36.603 37.221,36.689 37.177,36.787 C37.128,36.882 37.082,36.971 37.039,37.054 C36.996,37.137 36.952,37.211 36.920,37.279 C36.892,37.350 36.868,37.411 36.848,37.462 C36.807,37.562 36.783,37.620 36.783,37.620 C36.783,37.620 36.759,37.677 36.717,37.777 C36.674,37.877 36.642,38.030 36.585,38.207 C36.471,38.561 36.392,39.052 36.351,39.544 C36.332,39.667 36.351,39.792 36.346,39.913 C36.348,40.035 36.341,40.154 36.346,40.270 C36.377,40.501 36.391,40.717 36.413,40.902 C36.496,41.267 36.538,41.513 36.538,41.513 C36.538,41.513 36.621,41.749 36.725,42.109 C36.796,42.281 36.887,42.477 36.972,42.694 C37.024,42.797 37.088,42.899 37.146,43.006 C37.208,43.110 37.252,43.228 37.328,43.326 C37.603,43.736 37.909,44.128 38.180,44.382 C38.317,44.509 38.419,44.627 38.504,44.694 C38.590,44.761 38.639,44.799 38.639,44.799 C38.639,44.799 38.687,44.838 38.772,44.906 C38.814,44.940 38.865,44.982 38.923,45.031 C38.984,45.075 39.059,45.118 39.136,45.169 C39.214,45.221 39.298,45.277 39.387,45.336 C39.472,45.401 39.580,45.439 39.681,45.497 C39.784,45.551 39.890,45.608 39.998,45.665 C40.112,45.711 40.227,45.757 40.342,45.803 C40.566,45.915 40.813,45.958 41.031,46.035 C41.140,46.078 41.254,46.085 41.357,46.108 C41.461,46.130 41.560,46.150 41.651,46.168 C41.833,46.204 41.988,46.202 42.095,46.218 C42.202,46.230 42.264,46.236 42.264,46.236 C42.263,46.249 42.510,46.239 42.880,46.243 C43.066,46.243 43.280,46.201 43.512,46.187 C43.742,46.157 43.983,46.088 44.230,46.049 C44.464,45.963 44.708,45.906 44.924,45.821 C45.133,45.720 45.341,45.653 45.503,45.563 C45.825,45.379 46.046,45.268 46.039,45.258 C46.039,45.258 46.090,45.222 46.178,45.159 C46.264,45.093 46.401,45.020 46.543,44.900 C46.613,44.840 46.689,44.774 46.770,44.705 C46.849,44.634 46.945,44.573 47.019,44.483 C47.173,44.309 47.368,44.151 47.510,43.945 C47.588,43.849 47.667,43.753 47.744,43.658 C47.810,43.555 47.876,43.454 47.939,43.356 C47.999,43.256 48.075,43.170 48.119,43.072 C48.168,42.977 48.215,42.888 48.257,42.805 C48.300,42.722 48.345,42.649 48.377,42.580 C48.404,42.509 48.429,42.448 48.448,42.397 C48.490,42.297 48.513,42.239 48.513,42.239 C48.513,42.239 48.537,42.182 48.580,42.082 C48.622,41.982 48.654,41.829 48.712,41.652 C48.826,41.298 48.904,40.807 48.945,40.315 C48.964,40.192 48.946,40.068 48.950,39.946 C48.948,39.825 48.955,39.705 48.950,39.589 C48.920,39.358 48.905,39.142 48.883,38.957 ZM42.510,11.993 C42.450,12.270 42.327,12.515 42.163,12.685 C41.988,12.853 41.783,12.949 41.577,12.951 C41.577,12.951 41.340,12.956 40.990,12.947 C40.637,12.938 40.184,12.917 39.716,12.862 C38.784,12.762 37.901,12.547 37.901,12.547 C37.703,12.502 37.522,12.568 37.436,12.704 C37.436,12.704 37.248,13.037 37.248,13.037 C37.248,13.037 37.014,13.365 37.014,13.365 C36.938,13.484 36.948,13.652 37.053,13.796 C37.053,13.796 37.195,13.985 37.395,14.284 C37.596,14.582 37.852,14.996 38.084,15.431 C38.537,16.278 38.872,17.233 38.872,17.233 C39.009,17.590 38.803,18.042 38.397,18.347 C38.397,18.347 38.352,18.381 38.306,18.415 C38.258,18.446 38.210,18.476 38.210,18.476 C37.971,18.628 37.708,18.709 37.473,18.714 C37.238,18.721 37.020,18.632 36.874,18.490 C36.874,18.490 36.192,17.829 35.622,17.111 C35.033,16.379 34.559,15.600 34.559,15.600 C34.449,15.423 34.276,15.350 34.120,15.383 C34.120,15.383 33.752,15.485 33.752,15.485 C33.752,15.485 33.356,15.551 33.356,15.551 C33.219,15.583 33.107,15.701 33.079,15.882 C33.079,15.882 33.046,16.116 32.976,16.471 C32.907,16.821 32.796,17.307 32.653,17.765 C32.375,18.689 31.939,19.604 31.939,19.604 C31.785,19.943 31.320,20.127 30.818,20.056 C30.818,20.056 30.595,20.009 30.595,20.009 C30.318,19.949 30.073,19.826 29.904,19.662 C29.736,19.487 29.641,19.281 29.638,19.075 C29.638,19.075 29.634,18.838 29.642,18.487 C29.651,18.133 29.673,17.679 29.727,17.211 C29.827,16.277 30.042,15.394 30.042,15.394 C30.087,15.195 30.020,15.013 29.885,14.927 C29.885,14.927 29.552,14.739 29.552,14.739 C29.552,14.739 29.225,14.505 29.225,14.505 C29.107,14.428 28.939,14.439 28.795,14.544 C28.795,14.544 28.606,14.686 28.308,14.887 C28.010,15.087 27.596,15.344 27.162,15.576 C26.316,16.030 25.363,16.366 25.363,16.366 C25.006,16.503 24.555,16.297 24.251,15.890 C24.251,15.890 24.217,15.844 24.183,15.799 C24.152,15.750 24.122,15.702 24.122,15.702 C23.970,15.463 23.889,15.200 23.884,14.965 C23.878,14.729 23.966,14.510 24.108,14.364 C24.108,14.364 24.768,13.681 25.485,13.111 C26.216,12.520 26.993,12.046 26.993,12.046 C27.170,11.936 27.243,11.763 27.210,11.606 C27.210,11.606 27.108,11.238 27.108,11.238 C27.108,11.238 27.042,10.841 27.042,10.841 C27.011,10.704 26.892,10.591 26.712,10.564 C26.712,10.564 26.478,10.531 26.124,10.461 C25.774,10.392 25.289,10.280 24.832,10.137 C23.909,9.859 22.995,9.422 22.995,9.422 C22.657,9.268 22.474,8.802 22.544,8.299 C22.544,8.299 22.591,8.076 22.591,8.076 C22.651,7.799 22.774,7.554 22.938,7.383 C23.113,7.216 23.318,7.120 23.524,7.118 C23.524,7.118 23.761,7.113 24.111,7.121 C24.464,7.130 24.917,7.152 25.385,7.207 C26.317,7.306 27.200,7.522 27.200,7.522 C27.398,7.567 27.579,7.500 27.665,7.365 C27.665,7.365 27.853,7.031 27.853,7.031 C27.853,7.031 28.087,6.704 28.087,6.704 C28.163,6.585 28.153,6.417 28.048,6.273 C28.048,6.273 27.906,6.084 27.706,5.785 C27.505,5.487 27.249,5.072 27.018,4.638 C26.564,3.791 26.229,2.836 26.229,2.836 C26.092,2.479 26.298,2.027 26.704,1.722 C26.704,1.722 26.749,1.688 26.795,1.654 C26.843,1.623 26.891,1.593 26.891,1.593 C27.130,1.441 27.393,1.360 27.628,1.354 C27.863,1.348 28.081,1.437 28.227,1.579 C28.227,1.579 28.909,2.240 29.479,2.958 C30.068,3.690 30.542,4.469 30.542,4.469 C30.652,4.645 30.825,4.719 30.981,4.685 C30.981,4.685 31.349,4.584 31.349,4.584 C31.349,4.584 31.745,4.517 31.745,4.517 C31.882,4.486 31.994,4.367 32.022,4.187 C32.022,4.187 32.055,3.952 32.125,3.598 C32.194,3.248 32.305,2.762 32.448,2.304 C32.726,1.380 33.162,0.464 33.162,0.464 C33.316,0.126 33.781,-0.058 34.283,0.013 C34.283,0.013 34.506,0.060 34.506,0.060 C34.783,0.120 35.028,0.243 35.197,0.407 C35.365,0.582 35.460,0.788 35.463,0.994 C35.463,0.994 35.467,1.231 35.459,1.582 C35.450,1.936 35.428,2.390 35.374,2.858 C35.274,3.792 35.059,4.675 35.059,4.675 C35.014,4.874 35.081,5.055 35.216,5.141 C35.216,5.141 35.549,5.329 35.549,5.329 C35.549,5.329 35.876,5.564 35.876,5.564 C35.994,5.640 36.162,5.630 36.306,5.525 C36.306,5.525 36.495,5.383 36.793,5.182 C37.091,4.981 37.505,4.725 37.939,4.493 C38.785,4.038 39.738,3.703 39.738,3.703 C40.095,3.566 40.546,3.772 40.850,4.178 C40.850,4.178 40.884,4.224 40.918,4.270 C40.949,4.318 40.979,4.366 40.979,4.366 C41.131,4.606 41.212,4.869 41.217,5.104 C41.223,5.340 41.135,5.558 40.993,5.704 C40.993,5.704 40.333,6.388 39.616,6.958 C38.886,7.548 38.108,8.022 38.108,8.022 C37.931,8.133 37.858,8.306 37.891,8.462 C37.891,8.462 37.993,8.831 37.993,8.831 C37.993,8.831 38.059,9.227 38.059,9.227 C38.090,9.365 38.209,9.477 38.389,9.505 C38.389,9.505 38.623,9.538 38.977,9.608 C39.327,9.677 39.812,9.788 40.269,9.932 C41.192,10.210 42.106,10.647 42.106,10.647 C42.444,10.801 42.627,11.267 42.557,11.770 C42.557,11.770 42.510,11.993 42.510,11.993 ZM36.617,9.650 C36.615,9.612 36.613,9.576 36.612,9.542 C36.605,9.508 36.599,9.475 36.593,9.445 C36.582,9.385 36.573,9.332 36.565,9.288 C36.552,9.201 36.545,9.151 36.545,9.151 C36.545,9.151 36.531,9.103 36.506,9.018 C36.494,8.975 36.480,8.923 36.464,8.864 C36.457,8.834 36.449,8.802 36.441,8.769 C36.428,8.737 36.415,8.703 36.400,8.668 C36.310,8.378 36.119,8.022 35.902,7.687 C35.669,7.361 35.389,7.075 35.156,6.883 C35.104,6.828 35.044,6.792 34.993,6.757 C34.943,6.721 34.899,6.690 34.863,6.665 C34.792,6.611 34.751,6.581 34.751,6.581 C34.751,6.581 34.707,6.557 34.629,6.515 C34.590,6.493 34.543,6.466 34.490,6.436 C34.437,6.404 34.379,6.364 34.307,6.340 C34.036,6.210 33.658,6.076 33.265,6.001 C32.870,5.945 32.467,5.922 32.167,5.962 C32.129,5.964 32.093,5.965 32.058,5.967 C32.025,5.974 31.992,5.980 31.962,5.986 C31.902,5.997 31.849,6.006 31.806,6.014 C31.718,6.026 31.669,6.034 31.669,6.034 C31.669,6.034 31.620,6.048 31.536,6.073 C31.493,6.085 31.441,6.099 31.382,6.114 C31.352,6.122 31.320,6.130 31.287,6.138 C31.255,6.151 31.221,6.164 31.186,6.179 C30.897,6.269 30.541,6.460 30.206,6.677 C29.882,6.911 29.595,7.192 29.404,7.425 C29.349,7.477 29.313,7.537 29.278,7.588 C29.243,7.638 29.212,7.682 29.186,7.719 C29.133,7.790 29.102,7.830 29.102,7.830 C29.102,7.830 29.078,7.875 29.036,7.953 C29.014,7.992 28.988,8.038 28.957,8.092 C28.926,8.145 28.886,8.203 28.862,8.275 C28.732,8.547 28.598,8.925 28.523,9.318 C28.468,9.714 28.444,10.118 28.484,10.419 C28.486,10.457 28.488,10.493 28.490,10.527 C28.496,10.561 28.502,10.593 28.508,10.623 C28.519,10.684 28.528,10.737 28.536,10.780 C28.549,10.868 28.556,10.918 28.556,10.918 C28.556,10.918 28.570,10.966 28.595,11.051 C28.607,11.094 28.621,11.145 28.637,11.205 C28.644,11.235 28.652,11.266 28.660,11.300 C28.673,11.332 28.686,11.366 28.701,11.401 C28.791,11.691 28.982,12.047 29.199,12.382 C29.432,12.707 29.712,12.994 29.945,13.186 C29.997,13.241 30.057,13.277 30.108,13.312 C30.158,13.347 30.202,13.379 30.238,13.404 C30.309,13.457 30.350,13.488 30.350,13.488 C30.350,13.488 30.394,13.512 30.472,13.554 C30.511,13.576 30.558,13.603 30.611,13.633 C30.664,13.665 30.722,13.704 30.794,13.729 C31.065,13.859 31.443,13.993 31.836,14.068 C32.231,14.124 32.634,14.147 32.934,14.107 C32.972,14.105 33.008,14.103 33.043,14.102 C33.076,14.095 33.109,14.089 33.139,14.083 C33.199,14.072 33.252,14.063 33.295,14.055 C33.383,14.042 33.433,14.035 33.433,14.035 C33.433,14.035 33.481,14.021 33.565,13.996 C33.608,13.984 33.660,13.970 33.719,13.954 C33.749,13.947 33.781,13.939 33.814,13.931 C33.846,13.918 33.880,13.904 33.915,13.890 C34.204,13.800 34.560,13.609 34.895,13.391 C35.219,13.158 35.506,12.877 35.697,12.644 C35.752,12.592 35.788,12.532 35.823,12.481 C35.858,12.430 35.889,12.386 35.915,12.350 C35.968,12.279 35.999,12.239 35.999,12.239 C35.999,12.239 36.023,12.194 36.065,12.116 C36.087,12.077 36.113,12.030 36.144,11.977 C36.175,11.924 36.215,11.865 36.239,11.794 C36.369,11.522 36.503,11.144 36.578,10.750 C36.633,10.355 36.657,9.951 36.617,9.650 ZM23.398,20.772 C23.659,20.548 24.020,20.246 24.377,19.966 C25.093,19.398 25.850,18.866 25.850,18.866 C26.058,18.689 26.416,18.739 26.679,18.982 C26.679,18.982 26.779,19.073 26.878,19.165 C26.974,19.260 27.064,19.362 27.064,19.362 C27.338,19.660 27.394,20.065 27.195,20.301 C27.195,20.301 26.647,21.076 26.062,21.809 C25.772,22.175 25.461,22.544 25.231,22.811 C24.997,23.078 24.841,23.256 24.841,23.256 C24.632,23.467 24.595,23.787 24.757,24.004 C24.757,24.004 24.797,24.057 24.857,24.137 C24.922,24.214 24.987,24.331 25.057,24.445 C25.195,24.674 25.333,24.902 25.333,24.902 C25.333,24.902 25.363,24.951 25.408,25.025 C25.456,25.097 25.514,25.197 25.559,25.303 C25.659,25.511 25.759,25.719 25.759,25.719 C25.836,25.879 25.973,25.996 26.139,26.064 C26.294,26.135 26.479,26.157 26.666,26.107 C26.666,26.107 27.558,25.924 28.470,25.793 C29.380,25.657 30.307,25.573 30.307,25.573 C30.574,25.525 30.884,25.741 30.966,26.091 C30.966,26.091 31.103,26.617 31.103,26.617 C31.201,27.011 31.064,27.387 30.763,27.493 C30.763,27.493 29.892,27.891 29.008,28.234 C28.126,28.581 27.234,28.872 27.234,28.872 C26.945,28.950 26.774,29.205 26.798,29.475 C26.798,29.475 26.852,30.543 26.852,30.543 C26.852,30.543 26.804,31.465 26.804,31.465 C26.799,31.554 26.816,31.641 26.841,31.723 C26.862,31.805 26.898,31.883 26.948,31.953 C27.048,32.093 27.201,32.204 27.387,32.254 C27.387,32.254 28.255,32.542 29.114,32.885 C29.974,33.223 30.822,33.614 30.822,33.614 C31.088,33.708 31.209,34.041 31.123,34.389 C31.123,34.389 30.987,34.916 30.987,34.916 C30.894,35.312 30.549,35.557 30.246,35.502 C30.246,35.502 29.295,35.413 28.362,35.269 C27.427,35.130 26.513,34.938 26.513,34.938 C26.371,34.899 26.229,34.914 26.111,34.970 C25.989,35.024 25.880,35.112 25.822,35.236 C25.822,35.236 25.706,35.476 25.591,35.717 C25.534,35.838 25.477,35.958 25.420,36.041 C25.368,36.127 25.333,36.184 25.333,36.184 C25.333,36.184 25.214,36.381 25.094,36.578 C25.035,36.677 24.975,36.775 24.931,36.849 C24.879,36.919 24.845,36.965 24.845,36.965 C24.633,37.247 24.682,37.665 24.954,37.942 C24.954,37.942 25.105,38.116 25.332,38.377 C25.555,38.639 25.857,39.001 26.136,39.358 C26.704,40.075 27.234,40.833 27.234,40.833 C27.411,41.041 27.361,41.400 27.119,41.664 C27.119,41.664 27.027,41.763 26.935,41.863 C26.841,41.959 26.739,42.049 26.739,42.049 C26.442,42.324 26.037,42.380 25.802,42.180 C25.802,42.180 25.027,41.632 24.296,41.046 C23.930,40.755 23.562,40.444 23.295,40.213 C23.029,39.979 22.851,39.823 22.851,39.823 C22.640,39.614 22.321,39.576 22.104,39.739 C22.104,39.739 22.051,39.779 21.971,39.839 C21.894,39.904 21.777,39.969 21.664,40.039 C21.436,40.177 21.208,40.316 21.208,40.316 C21.208,40.316 21.159,40.346 21.085,40.391 C21.013,40.438 20.913,40.496 20.807,40.542 C20.600,40.642 20.392,40.742 20.392,40.742 C20.232,40.819 20.115,40.956 20.048,41.122 C19.976,41.278 19.955,41.463 20.005,41.650 C20.005,41.650 20.187,42.544 20.318,43.457 C20.454,44.368 20.537,45.297 20.537,45.297 C20.585,45.564 20.370,45.875 20.020,45.957 C20.020,45.957 19.495,46.094 19.495,46.094 C19.101,46.192 18.726,46.055 18.621,45.754 C18.621,45.754 18.223,44.881 17.881,43.996 C17.534,43.113 17.244,42.220 17.244,42.220 C17.166,41.930 16.911,41.759 16.642,41.782 C16.642,41.782 15.575,41.836 15.575,41.836 C15.575,41.836 14.655,41.789 14.655,41.789 C14.566,41.784 14.479,41.801 14.397,41.826 C14.315,41.846 14.238,41.883 14.168,41.933 C14.028,42.033 13.917,42.186 13.867,42.373 C13.867,42.373 13.579,43.242 13.237,44.102 C12.900,44.963 12.509,45.813 12.509,45.813 C12.415,46.079 12.083,46.200 11.735,46.114 C11.735,46.114 11.209,45.978 11.209,45.978 C10.814,45.885 10.569,45.540 10.624,45.236 C10.624,45.236 10.713,44.283 10.857,43.349 C10.995,42.413 11.187,41.498 11.187,41.498 C11.226,41.355 11.211,41.212 11.155,41.095 C11.102,40.973 11.013,40.863 10.890,40.805 C10.890,40.805 10.650,40.689 10.410,40.573 C10.289,40.517 10.168,40.460 10.085,40.403 C10.000,40.351 9.943,40.316 9.943,40.316 C9.943,40.316 9.746,40.196 9.550,40.076 C9.451,40.017 9.353,39.957 9.279,39.912 C9.209,39.861 9.163,39.826 9.163,39.826 C8.882,39.614 8.465,39.663 8.188,39.936 C8.188,39.936 8.014,40.087 7.753,40.314 C7.492,40.537 7.131,40.840 6.774,41.120 C6.058,41.688 5.301,42.220 5.301,42.220 C5.093,42.396 4.735,42.347 4.472,42.104 C4.472,42.104 4.372,42.012 4.273,41.920 C4.177,41.825 4.087,41.724 4.087,41.724 C3.813,41.426 3.757,41.020 3.956,40.785 C3.956,40.785 4.504,40.009 5.089,39.277 C5.379,38.910 5.690,38.542 5.920,38.274 C6.154,38.007 6.310,37.830 6.310,37.830 C6.519,37.619 6.556,37.298 6.394,37.082 C6.394,37.082 6.354,37.028 6.294,36.948 C6.229,36.871 6.164,36.754 6.094,36.640 C5.956,36.412 5.818,36.184 5.818,36.184 C5.818,36.184 5.788,36.135 5.743,36.061 C5.695,35.988 5.638,35.889 5.592,35.783 C5.492,35.575 5.392,35.367 5.392,35.367 C5.315,35.207 5.178,35.089 5.012,35.022 C4.857,34.950 4.672,34.929 4.485,34.979 C4.485,34.979 3.593,35.162 2.681,35.293 C1.771,35.429 0.844,35.512 0.844,35.512 C0.577,35.560 0.267,35.345 0.185,34.995 C0.185,34.995 0.048,34.468 0.048,34.468 C-0.050,34.074 0.087,33.698 0.388,33.593 C0.388,33.593 1.259,33.194 2.143,32.852 C3.025,32.504 3.917,32.214 3.917,32.214 C4.206,32.136 4.377,31.881 4.353,31.611 C4.353,31.611 4.299,30.543 4.299,30.543 C4.299,30.543 4.347,29.621 4.347,29.621 C4.352,29.532 4.335,29.444 4.310,29.362 C4.289,29.280 4.253,29.203 4.203,29.133 C4.103,28.993 3.950,28.881 3.764,28.831 C3.764,28.831 2.896,28.543 2.037,28.200 C1.177,27.863 0.329,27.471 0.329,27.471 C0.063,27.378 -0.058,27.045 0.028,26.696 C0.028,26.696 0.164,26.170 0.164,26.170 C0.257,25.774 0.602,25.529 0.905,25.584 C0.905,25.584 1.856,25.673 2.789,25.817 C3.724,25.955 4.638,26.148 4.638,26.148 C4.780,26.187 4.922,26.171 5.040,26.116 C5.162,26.062 5.271,25.973 5.329,25.850 C5.329,25.850 5.445,25.609 5.560,25.369 C5.617,25.248 5.674,25.127 5.731,25.044 C5.783,24.959 5.818,24.902 5.818,24.902 C5.818,24.902 5.937,24.705 6.057,24.508 C6.116,24.409 6.176,24.310 6.220,24.236 C6.272,24.167 6.306,24.121 6.306,24.121 C6.518,23.839 6.469,23.421 6.197,23.144 C6.197,23.144 6.046,22.970 5.819,22.708 C5.596,22.446 5.294,22.085 5.015,21.728 C4.447,21.011 3.917,20.253 3.917,20.253 C3.740,20.044 3.790,19.685 4.032,19.422 C4.032,19.422 4.124,19.322 4.216,19.223 C4.310,19.126 4.412,19.037 4.412,19.037 C4.709,18.762 5.114,18.706 5.349,18.906 C5.349,18.906 6.124,19.454 6.855,20.040 C7.221,20.331 7.589,20.642 7.856,20.872 C8.122,21.106 8.300,21.263 8.300,21.263 C8.511,21.472 8.830,21.510 9.047,21.347 C9.047,21.347 9.100,21.307 9.180,21.247 C9.257,21.182 9.374,21.117 9.487,21.047 C9.715,20.908 9.943,20.770 9.943,20.770 C9.943,20.770 9.992,20.740 10.066,20.695 C10.138,20.647 10.238,20.589 10.344,20.544 C10.551,20.444 10.759,20.344 10.759,20.344 C10.919,20.267 11.036,20.129 11.103,19.963 C11.175,19.808 11.196,19.622 11.146,19.436 C11.146,19.436 10.964,18.542 10.833,17.629 C10.697,16.717 10.614,15.788 10.614,15.788 C10.566,15.521 10.781,15.211 11.131,15.129 C11.131,15.129 11.656,14.992 11.656,14.992 C12.050,14.894 12.425,15.030 12.530,15.331 C12.530,15.331 12.928,16.205 13.270,17.089 C13.617,17.973 13.907,18.866 13.907,18.866 C13.985,19.156 14.240,19.327 14.509,19.303 C14.509,19.303 15.575,19.249 15.575,19.249 C15.575,19.249 16.496,19.297 16.496,19.297 C16.585,19.302 16.672,19.285 16.754,19.260 C16.836,19.239 16.913,19.203 16.983,19.153 C17.123,19.053 17.234,18.900 17.284,18.713 C17.284,18.713 17.572,17.844 17.914,16.984 C18.251,16.123 18.642,15.272 18.642,15.272 C18.736,15.006 19.068,14.885 19.416,14.972 C19.416,14.972 19.942,15.108 19.942,15.108 C20.337,15.201 20.582,15.546 20.527,15.850 C20.527,15.850 20.438,16.803 20.294,17.737 C20.156,18.673 19.964,19.588 19.964,19.588 C19.925,19.730 19.940,19.873 19.996,19.991 C20.049,20.113 20.138,20.222 20.261,20.281 C20.261,20.281 20.501,20.396 20.741,20.512 C20.862,20.569 20.983,20.626 21.066,20.683 C21.151,20.735 21.208,20.770 21.208,20.770 C21.208,20.770 21.405,20.890 21.601,21.009 C21.700,21.069 21.798,21.128 21.872,21.173 C21.942,21.225 21.988,21.259 21.988,21.259 C22.269,21.472 22.686,21.422 22.963,21.150 C22.963,21.150 23.137,20.999 23.398,20.772 ZM22.600,25.678 C22.472,25.511 22.325,25.315 22.172,25.101 C21.991,24.909 21.803,24.703 21.618,24.491 C21.407,24.306 21.200,24.117 21.009,23.936 C20.795,23.783 20.600,23.636 20.433,23.507 C20.267,23.379 20.105,23.306 20.004,23.237 C19.900,23.173 19.841,23.137 19.841,23.137 C19.841,23.137 19.781,23.100 19.678,23.034 C19.571,22.975 19.409,22.908 19.222,22.815 C19.128,22.768 19.027,22.718 18.919,22.664 C18.808,22.620 18.687,22.582 18.565,22.536 C18.443,22.491 18.316,22.443 18.188,22.395 C18.060,22.344 17.920,22.326 17.787,22.287 C17.652,22.251 17.517,22.216 17.385,22.181 C17.253,22.139 17.115,22.138 16.987,22.114 C16.858,22.094 16.733,22.074 16.614,22.055 C16.555,22.046 16.498,22.034 16.441,22.028 C16.385,22.026 16.330,22.024 16.277,22.022 C15.856,22.006 15.575,21.984 15.575,21.984 C15.575,21.984 15.295,22.006 14.874,22.022 C14.821,22.024 14.766,22.026 14.710,22.028 C14.653,22.034 14.596,22.046 14.537,22.055 C14.418,22.074 14.293,22.094 14.164,22.114 C14.036,22.138 13.898,22.139 13.766,22.181 C13.634,22.216 13.499,22.251 13.364,22.287 C13.231,22.326 13.091,22.344 12.963,22.395 C12.835,22.443 12.708,22.491 12.586,22.536 C12.464,22.582 12.343,22.620 12.232,22.664 C12.124,22.718 12.023,22.768 11.929,22.815 C11.742,22.908 11.580,22.975 11.473,23.034 C11.370,23.100 11.310,23.137 11.310,23.137 C11.310,23.137 11.251,23.173 11.147,23.237 C11.046,23.306 10.884,23.379 10.718,23.507 C10.551,23.636 10.356,23.783 10.142,23.936 C9.951,24.117 9.744,24.306 9.533,24.491 C9.348,24.703 9.160,24.909 8.979,25.101 C8.826,25.315 8.679,25.511 8.551,25.678 C8.422,25.844 8.350,26.006 8.281,26.107 C8.217,26.211 8.181,26.271 8.181,26.271 C8.181,26.271 8.144,26.330 8.079,26.434 C8.019,26.541 7.953,26.703 7.859,26.890 C7.813,26.984 7.762,27.086 7.709,27.194 C7.665,27.305 7.627,27.426 7.581,27.549 C7.536,27.671 7.488,27.798 7.440,27.926 C7.389,28.054 7.371,28.194 7.333,28.328 C7.297,28.463 7.261,28.598 7.226,28.731 C7.185,28.862 7.184,29.001 7.160,29.129 C7.139,29.259 7.120,29.384 7.101,29.503 C7.092,29.562 7.080,29.619 7.073,29.676 C7.072,29.732 7.070,29.787 7.068,29.840 C7.052,30.262 7.030,30.543 7.030,30.543 C7.030,30.543 7.052,30.824 7.068,31.245 C7.070,31.298 7.072,31.353 7.073,31.410 C7.080,31.466 7.092,31.524 7.101,31.583 C7.120,31.702 7.139,31.827 7.160,31.957 C7.184,32.085 7.185,32.223 7.226,32.355 C7.261,32.488 7.297,32.623 7.333,32.757 C7.371,32.891 7.389,33.032 7.440,33.159 C7.488,33.288 7.536,33.415 7.581,33.537 C7.627,33.659 7.665,33.780 7.709,33.892 C7.762,34.000 7.813,34.101 7.859,34.195 C7.953,34.383 8.019,34.545 8.079,34.651 C8.144,34.755 8.181,34.815 8.181,34.815 C8.181,34.815 8.217,34.874 8.281,34.979 C8.350,35.080 8.422,35.241 8.551,35.408 C8.679,35.575 8.826,35.771 8.979,35.985 C9.160,36.176 9.348,36.383 9.533,36.595 C9.744,36.780 9.951,36.969 10.142,37.150 C10.356,37.303 10.551,37.450 10.718,37.578 C10.884,37.707 11.046,37.779 11.147,37.848 C11.251,37.912 11.310,37.949 11.310,37.949 C11.310,37.949 11.370,37.986 11.473,38.051 C11.580,38.111 11.742,38.177 11.929,38.271 C12.023,38.318 12.124,38.368 12.232,38.421 C12.343,38.466 12.464,38.503 12.586,38.549 C12.708,38.595 12.835,38.642 12.963,38.691 C13.091,38.742 13.231,38.760 13.364,38.798 C13.499,38.834 13.634,38.870 13.766,38.905 C13.898,38.946 14.036,38.947 14.164,38.972 C14.293,38.992 14.418,39.012 14.537,39.030 C14.596,39.039 14.653,39.052 14.710,39.058 C14.766,39.060 14.821,39.062 14.874,39.063 C15.295,39.079 15.575,39.102 15.575,39.102 C15.575,39.102 15.856,39.079 16.277,39.063 C16.330,39.062 16.385,39.060 16.441,39.058 C16.498,39.052 16.555,39.039 16.614,39.030 C16.733,39.012 16.858,38.992 16.987,38.972 C17.115,38.947 17.253,38.946 17.385,38.905 C17.517,38.870 17.652,38.834 17.787,38.798 C17.920,38.760 18.060,38.742 18.188,38.691 C18.316,38.642 18.443,38.595 18.565,38.549 C18.687,38.503 18.808,38.466 18.919,38.421 C19.027,38.368 19.128,38.318 19.222,38.271 C19.409,38.177 19.571,38.111 19.678,38.051 C19.781,37.986 19.841,37.949 19.841,37.949 C19.841,37.949 19.900,37.912 20.004,37.848 C20.105,37.779 20.267,37.707 20.433,37.578 C20.600,37.450 20.795,37.303 21.009,37.150 C21.200,36.969 21.407,36.780 21.618,36.595 C21.803,36.383 21.991,36.176 22.172,35.985 C22.325,35.771 22.472,35.575 22.600,35.408 C22.729,35.241 22.801,35.080 22.870,34.979 C22.934,34.874 22.970,34.815 22.970,34.815 C22.970,34.815 23.007,34.755 23.072,34.651 C23.132,34.545 23.198,34.383 23.292,34.195 C23.338,34.101 23.389,34.000 23.442,33.892 C23.486,33.780 23.524,33.659 23.570,33.537 C23.615,33.415 23.663,33.288 23.711,33.159 C23.762,33.032 23.780,32.891 23.818,32.757 C23.854,32.623 23.890,32.488 23.925,32.355 C23.966,32.223 23.967,32.085 23.991,31.957 C24.012,31.827 24.031,31.702 24.050,31.583 C24.059,31.524 24.071,31.466 24.078,31.410 C24.079,31.353 24.081,31.298 24.083,31.245 C24.099,30.824 24.121,30.543 24.121,30.543 C24.121,30.543 24.099,30.262 24.083,29.840 C24.081,29.787 24.079,29.732 24.078,29.676 C24.071,29.619 24.059,29.562 24.050,29.503 C24.031,29.384 24.012,29.259 23.991,29.129 C23.967,29.001 23.966,28.862 23.925,28.731 C23.890,28.598 23.854,28.463 23.818,28.328 C23.780,28.194 23.762,28.054 23.711,27.926 C23.663,27.798 23.615,27.671 23.570,27.549 C23.524,27.426 23.486,27.305 23.442,27.194 C23.389,27.086 23.338,26.984 23.292,26.890 C23.198,26.703 23.132,26.541 23.072,26.434 C23.007,26.330 22.970,26.271 22.970,26.271 C22.970,26.271 22.934,26.211 22.870,26.107 C22.801,26.006 22.729,25.844 22.600,25.678 Z"/>
</svg>