<svg id="SvgjsSvg1031" xmlns="http://www.w3.org/2000/svg" version="1.1" xmlns:xlink="http://www.w3.org/1999/xlink" xmlns:svgjs="http://svgjs.com/svgjs" width="19" height="18" viewBox="0 0 19 18"><title>wallet</title><desc>Created with Avocode.</desc><defs id="SvgjsDefs1032"></defs><path id="SvgjsPath1033" d="M1883.14 457L1889.69 457L1889.69 452.986L1873.64 452.986C1873.0900000000001 452.986 1872.65 452.538 1872.65 451.986C1872.65 451.43399999999997 1873.0900000000001 450.986 1873.64 450.986L1878.74 450.986L1880.28 450.33299999999997L1873.96 450.33299999999997C1872.88 450.33299999999997 1872 451.22799999999995 1872 452.33299999999997L1872 464.99999999999994C1872 466.1039999999999 1872.88 466.99999999999994 1873.96 466.99999999999994L1887.72 466.99999999999994C1888.81 466.99999999999994 1889.69 466.1039999999999 1889.69 464.99999999999994L1889.69 462.33299999999997L1883.14 462.33299999999997C1882.0500000000002 462.33299999999997 1881.17 461.438 1881.17 460.33299999999997L1881.17 458.99999999999994C1881.17 457.8949999999999 1882.0500000000002 456.99999999999994 1883.14 456.99999999999994ZM1891 461.666L1891 457.666L1883.14 457.666C1882.41 457.666 1881.8300000000002 458.263 1881.8300000000002 459L1881.8300000000002 460.333C1881.8300000000002 461.069 1882.41 461.66600000000005 1883.14 461.66600000000005ZM1886.41 452.291L1884.94 449L1877.24 452.291ZM1885.1 459.722C1885.1 460.274 1884.6599999999999 460.722 1884.12 460.722C1883.58 460.722 1883.1399999999999 460.274 1883.1399999999999 459.722C1883.1399999999999 459.16999999999996 1883.58 458.722 1884.12 458.722C1884.6599999999999 458.722 1885.1 459.16999999999996 1885.1 459.722ZM1886.18 450.333L1887.72 450.333C1888.3 450.333 1888.81 450.58700000000005 1889.17 450.98600000000005L1886.49 450.98600000000005Z " fill="#ffffff" fill-opacity="1" transform="matrix(1,0,0,1,-1872,-449)"></path><path id="SvgjsPath1034" d="M1883.14 457L1889.69 457L1889.69 452.986L1873.64 452.986C1873.0900000000001 452.986 1872.65 452.538 1872.65 451.986C1872.65 451.43399999999997 1873.0900000000001 450.986 1873.64 450.986L1878.74 450.986L1880.28 450.33299999999997L1873.96 450.33299999999997C1872.88 450.33299999999997 1872 451.22799999999995 1872 452.33299999999997L1872 464.99999999999994C1872 466.1039999999999 1872.88 466.99999999999994 1873.96 466.99999999999994L1887.72 466.99999999999994C1888.81 466.99999999999994 1889.69 466.1039999999999 1889.69 464.99999999999994L1889.69 462.33299999999997L1883.14 462.33299999999997C1882.0500000000002 462.33299999999997 1881.17 461.438 1881.17 460.33299999999997L1881.17 458.99999999999994C1881.17 457.8949999999999 1882.0500000000002 456.99999999999994 1883.14 456.99999999999994ZM1891 461.666L1891 457.666L1883.14 457.666C1882.41 457.666 1881.8300000000002 458.263 1881.8300000000002 459L1881.8300000000002 460.333C1881.8300000000002 461.069 1882.41 461.66600000000005 1883.14 461.66600000000005ZM1886.41 452.291L1884.94 449L1877.24 452.291ZM1885.1 459.722C1885.1 460.274 1884.6599999999999 460.722 1884.12 460.722C1883.58 460.722 1883.1399999999999 460.274 1883.1399999999999 459.722C1883.1399999999999 459.16999999999996 1883.58 458.722 1884.12 458.722C1884.6599999999999 458.722 1885.1 459.16999999999996 1885.1 459.722ZM1886.18 450.333L1887.72 450.333C1888.3 450.333 1888.81 450.58700000000005 1889.17 450.98600000000005L1886.49 450.98600000000005Z " fill="#ffffff" fill-opacity="1" transform="matrix(1,0,0,1,-1872,-449)"></path></svg>