<svg id="SvgjsSvg1000" xmlns="http://www.w3.org/2000/svg" version="1.1" xmlns:xlink="http://www.w3.org/1999/xlink" xmlns:svgjs="http://svgjs.com/svgjs" width="21" height="16" viewBox="0 0 21 16"><title>Shape 19</title><desc>Created with Avocode.</desc><defs id="SvgjsDefs1001"></defs><path id="SvgjsPath1007" d="M1348.27 1675.64H1328.73C1328.33 1675.64 1328 1675.96 1328 1676.3500000000001V1687.2900000000002C1328 1687.6800000000003 1328.33 1688.0000000000002 1328.73 1688.0000000000002H1348.27C1348.67 1688.0000000000002 1349 1687.6800000000003 1349 1687.2900000000002V1676.3500000000001C1349 1675.96 1348.67 1675.64 1348.27 1675.64ZM1347.82 1686.58H1329.25V1676.85H1347.82ZM1336.35 1673.04H1340.6999999999998C1340.8999999999999 1673.04 1341.0599999999997 1673.2 1341.0599999999997 1673.3899999999999V1674.6H1342.2599999999998V1673.31V1672.8899999999999V1672.62C1342.2599999999998 1672.28 1341.9699999999998 1672 1341.6199999999997 1672H1335.3399999999997C1335.0299999999997 1672 1334.7799999999997 1672.24 1334.7799999999997 1672.54V1672.8899999999999V1673.31V1674.6H1335.9799999999998V1673.4099999999999C1335.9799999999998 1673.2099999999998 1336.1499999999999 1673.04 1336.3499999999997 1673.04Z " fill="#f2f1f1" fill-opacity="1" transform="matrix(1,0,0,1,-1328,-1672)"></path></svg>