<svg id="SvgjsSvg1017" xmlns="http://www.w3.org/2000/svg" version="1.1" xmlns:xlink="http://www.w3.org/1999/xlink" xmlns:svgjs="http://svgjs.com/svgjs" width="23" height="18" viewBox="0 0 23 18"><title>Twitter</title><desc>Created with Avocode.</desc><defs id="SvgjsDefs1018"></defs><path id="SvgjsPath1019" d="M1222 670.131C1221.15 670.4929999999999 1220.24 670.737 1219.29 670.847C1220.26 670.284 1221.01 669.394 1221.36 668.333C1220.4499999999998 668.8539999999999 1219.4399999999998 669.232 1218.37 669.435C1217.51 668.5519999999999 1216.28 668.001 1214.9199999999998 668.001C1212.32 668.001 1210.2099999999998 670.035 1210.2099999999998 672.544C1210.2099999999998 672.901 1210.2499999999998 673.247 1210.3299999999997 673.5799999999999C1206.4099999999996 673.391 1202.9299999999996 671.5809999999999 1200.5999999999997 668.8319999999999C1200.1999999999996 669.5029999999999 1199.9599999999996 670.2839999999999 1199.9599999999996 671.1169999999998C1199.9599999999996 672.6929999999999 1200.7999999999995 674.0839999999998 1202.0599999999995 674.8989999999999C1201.2899999999995 674.8749999999999 1200.5599999999995 674.6709999999999 1199.9199999999994 674.3299999999999C1199.9199999999994 674.3499999999999 1199.9199999999994 674.3679999999999 1199.9199999999994 674.3879999999999C1199.9199999999994 676.5889999999999 1201.5499999999995 678.425 1203.7099999999994 678.843C1203.3099999999993 678.947 1202.8999999999994 679.0029999999999 1202.4699999999993 679.0029999999999C1202.1599999999994 679.0029999999999 1201.8699999999994 678.9739999999999 1201.5799999999992 678.9209999999999C1202.1799999999992 680.7259999999999 1203.9199999999992 682.04 1205.9899999999993 682.0769999999999C1204.3699999999994 683.2949999999998 1202.3399999999992 684.0219999999999 1200.1299999999994 684.0219999999999C1199.7399999999993 684.0219999999999 1199.3699999999994 684.001 1198.9999999999993 683.958C1201.0899999999992 685.2479999999999 1203.5699999999993 686 1206.2299999999993 686C1214.9099999999994 686 1219.6599999999994 679.076 1219.6599999999994 673.071C1219.6599999999994 672.874 1219.6499999999994 672.678 1219.6499999999994 672.4830000000001C1220.5699999999995 671.8430000000001 1221.3699999999994 671.042 1221.9999999999993 670.1310000000001ZM1218.12 674.853C1218.12 674.853 1217.1399999999999 680.6329999999999 1212.07 683.2969999999999C1208.81 684.6289999999999 1207.37 684.8199999999999 1204.06 684.4309999999999C1204.23 684.4499999999999 1207.05 684.1619999999999 1208.86 681.0699999999999C1207.9099999999999 681.054 1204.2299999999998 680.7239999999999 1203.9499999999998 679.891C1203.9499999999998 679.891 1205.4699999999998 679.6279999999999 1206.5199999999998 678.401C1202.9899999999998 677.5179999999999 1201.8199999999997 676.136 1201.8199999999997 676.136C1201.8199999999997 676.136 1204.0999999999997 676.279 1204.7999999999997 675.7529999999999C1203.2699999999998 674.6339999999999 1202.0799999999997 672.65 1201.9899999999998 672.1869999999999C1204.1399999999999 673.5719999999999 1204.5899999999997 674.5759999999999 1212.3799999999999 675.2099999999999C1212.34 675.0559999999999 1211.79 673.4649999999999 1211.79 673.4649999999999C1211.7 673.1729999999999 1211.6499999999999 672.8629999999999 1211.6499999999999 672.5409999999999C1211.6499999999999 670.805 1213.11 669.3979999999999 1214.9099999999999 669.3979999999999C1216.7199999999998 669.3979999999999 1218.1799999999998 670.805 1218.1799999999998 672.5409999999999C1218.1799999999998 673.1959999999999 1218.12 674.853 1218.12 674.853Z " fill="#ffffff" fill-opacity="1" transform="matrix(1,0,0,1,-1199,-668)"></path></svg>