<svg id="SvgjsSvg1027" xmlns="http://www.w3.org/2000/svg" version="1.1" xmlns:xlink="http://www.w3.org/1999/xlink" xmlns:svgjs="http://svgjs.com/svgjs" width="19" height="17" viewBox="0 0 19 17"><title>university</title><desc>Created with Avocode.</desc><defs id="SvgjsDefs1028"></defs><path id="SvgjsPath1029" d="M1819.49 450.004C1819.49 450.004 1827.35 455.713 1827.72 455.961C1828.09 456.21000000000004 1828.1100000000001 456.583 1827.71 456.75800000000004C1827.69 456.75800000000004 1811.3 456.75800000000004 1811.3 456.75800000000004C1810.8799999999999 456.583 1810.8999999999999 456.21000000000004 1811.3 455.961C1811.69 455.713 1819.49 450.004 1819.49 450.004ZM1812 465L1827 465L1827 466L1828 466L1828 467L1811 467L1811 466L1812 466ZM1812.36 457.426L1815.75 457.426L1815.75 458.179L1815.08 458.179L1815.08 464.263L1813.02 464.263L1813.02 458.11199999999997L1812.36 458.11199999999997ZM1817.81 457.468L1821.2 457.468L1821.2 458.136L1820.54 458.136L1820.54 464.26300000000003L1818.47 464.26300000000003L1818.47 458.112L1817.81 458.112ZM1823.22 457.468L1826.6100000000001 457.468L1826.6100000000001 458.136L1825.95 458.136L1825.95 464.26300000000003L1823.88 464.26300000000003L1823.88 458.112L1823.22 458.112ZM1818.3 454.017C1818.3 454.677 1818.84 455.211 1819.49 455.211C1820.15 455.211 1820.68 454.677 1820.68 454.017C1820.68 453.35699999999997 1820.15 452.823 1819.49 452.823C1818.84 452.823 1818.3 453.35699999999997 1818.3 454.017Z " fill="#449fec" fill-opacity="1" transform="matrix(1,0,0,1,-1810,-450)"></path><path id="SvgjsPath1030" d="M1819.49 450.004C1819.49 450.004 1827.35 455.713 1827.72 455.961C1828.09 456.21000000000004 1828.1100000000001 456.583 1827.71 456.75800000000004C1827.69 456.75800000000004 1811.3 456.75800000000004 1811.3 456.75800000000004C1810.8799999999999 456.583 1810.8999999999999 456.21000000000004 1811.3 455.961C1811.69 455.713 1819.49 450.004 1819.49 450.004ZM1812 465L1827 465L1827 466L1828 466L1828 467L1811 467L1811 466L1812 466ZM1812.36 457.426L1815.75 457.426L1815.75 458.179L1815.08 458.179L1815.08 464.263L1813.02 464.263L1813.02 458.11199999999997L1812.36 458.11199999999997ZM1817.81 457.468L1821.2 457.468L1821.2 458.136L1820.54 458.136L1820.54 464.26300000000003L1818.47 464.26300000000003L1818.47 458.112L1817.81 458.112ZM1823.22 457.468L1826.6100000000001 457.468L1826.6100000000001 458.136L1825.95 458.136L1825.95 464.26300000000003L1823.88 464.26300000000003L1823.88 458.112L1823.22 458.112ZM1818.3 454.017C1818.3 454.677 1818.84 455.211 1819.49 455.211C1820.15 455.211 1820.68 454.677 1820.68 454.017C1820.68 453.35699999999997 1820.15 452.823 1819.49 452.823C1818.84 452.823 1818.3 453.35699999999997 1818.3 454.017Z " fill="#47b6ac" fill-opacity="1" transform="matrix(1,0,0,1,-1810,-450)"></path></svg>