<svg id="SvgjsSvg1011" xmlns="http://www.w3.org/2000/svg" version="1.1" xmlns:xlink="http://www.w3.org/1999/xlink" xmlns:svgjs="http://svgjs.com/svgjs" width="29" height="18" viewBox="0 0 29 18"><title>Shape 20</title><desc>Created with Avocode.</desc><defs id="SvgjsDefs1012"></defs><path id="SvgjsPath1013" d="M1048.7 685.934H1050.3700000000001C1050.3700000000001 685.934 1050.88 685.8779999999999 1051.14 685.5989999999999C1051.3700000000001 685.343 1051.3700000000001 684.8629999999999 1051.3700000000001 684.8629999999999C1051.3700000000001 684.8629999999999 1051.3300000000002 682.6139999999999 1052.38 682.2819999999999C1053.4 681.9559999999999 1054.72 684.4559999999999 1056.1200000000001 685.4179999999999C1057.18 686.1449999999999 1057.98 685.9859999999999 1057.98 685.9859999999999L1061.72 685.9339999999999C1061.72 685.9339999999999 1063.68 685.8129999999999 1062.75 684.2719999999998C1062.67 684.1469999999998 1062.21 683.1329999999998 1059.97 681.0499999999998C1057.63 678.8699999999999 1057.94 679.2229999999998 1060.76 675.4519999999999C1062.48 673.1549999999999 1063.17 671.7529999999999 1062.96 671.1529999999999C1062.75 670.5809999999999 1061.49 670.7319999999999 1061.49 670.7319999999999L1057.28 670.7579999999998C1057.28 670.7579999999998 1056.96 670.7149999999998 1056.73 670.8539999999998C1056.51 670.9899999999998 1056.3600000000001 671.3059999999998 1056.3600000000001 671.3059999999998C1056.3600000000001 671.3059999999998 1055.69 673.0829999999999 1054.8100000000002 674.5949999999998C1052.93 677.7839999999998 1052.18 677.9529999999997 1051.88 677.7539999999998C1051.16 677.2929999999998 1051.3400000000001 675.8999999999997 1051.3400000000001 674.9109999999998C1051.3400000000001 671.8209999999998 1051.8100000000002 670.5319999999998 1050.43 670.1979999999999C1049.97 670.0879999999999 1049.63 670.0149999999999 1048.46 670.0029999999998C1046.96 669.9869999999999 1045.69 670.0069999999998 1044.97 670.3609999999998C1044.49 670.5959999999998 1044.1200000000001 671.1189999999998 1044.3500000000001 671.1489999999998C1044.63 671.1859999999998 1045.2600000000002 671.3199999999998 1045.5900000000001 671.7749999999997C1046.0200000000002 672.3629999999997 1046.0100000000002 673.6829999999998 1046.0100000000002 673.6829999999998C1046.0100000000002 673.6829999999998 1046.2500000000002 677.3209999999998 1045.4300000000003 677.7729999999998C1044.8600000000004 678.0829999999997 1044.0800000000004 677.4499999999998 1042.4100000000003 674.5569999999998C1041.5500000000004 673.0749999999998 1040.9100000000003 671.4369999999998 1040.9100000000003 671.4369999999998C1040.9100000000003 671.4369999999998 1040.7800000000002 671.1309999999997 1040.5600000000004 670.9669999999998C1040.2900000000004 670.7679999999998 1039.9100000000003 670.7059999999998 1039.9100000000003 670.7059999999998L1035.9100000000003 670.7319999999997C1035.9100000000003 670.7319999999997 1035.3100000000004 670.7489999999998 1035.0900000000004 671.0099999999998C1034.9000000000003 671.2429999999997 1035.0800000000004 671.7239999999998 1035.0800000000004 671.7239999999998C1035.0800000000004 671.7239999999998 1038.2100000000005 679.0649999999998 1041.7500000000005 682.7639999999998C1045.0100000000004 686.1559999999998 1048.7000000000005 685.9339999999997 1048.7000000000005 685.9339999999997Z " fill="#ffffff" fill-opacity="1" transform="matrix(1,0,0,1,-1035,-669)"></path></svg>